<?xml version="1.0" encoding="UTF-8" standalone="no"?>
<!-- Created with Inkscape (http://www.inkscape.org/) -->

<svg
   xmlns:dc="http://purl.org/dc/elements/1.1/"
   xmlns:cc="http://creativecommons.org/ns#"
   xmlns:rdf="http://www.w3.org/1999/02/22-rdf-syntax-ns#"
   xmlns:svg="http://www.w3.org/2000/svg"
   xmlns="http://www.w3.org/2000/svg"
   xmlns:sodipodi="http://sodipodi.sourceforge.net/DTD/sodipodi-0.dtd"
   xmlns:inkscape="http://www.inkscape.org/namespaces/inkscape"
   width="114.8987mm"
   height="133.43416mm"
   viewBox="0 0 114.8987 133.43416"
   version="1.1"
   id="svg8"
   inkscape:version="0.92.1 r15371"
   sodipodi:docname="Phore-LOGO.svg">
  <defs
     id="defs2" />
  <sodipodi:namedview
     id="base"
     pagecolor="#ffffff"
     bordercolor="#666666"
     borderopacity="1.0"
     inkscape:pageopacity="0.0"
     inkscape:pageshadow="2"
     inkscape:zoom="0.35"
     inkscape:cx="208.55997"
     inkscape:cy="200.73048"
     inkscape:document-units="mm"
     inkscape:current-layer="layer1"
     showgrid="false"
     fit-margin-top="0"
     fit-margin-left="0"
     fit-margin-right="0"
     fit-margin-bottom="0"
     inkscape:window-width="944"
     inkscape:window-height="1001"
     inkscape:window-x="0"
     inkscape:window-y="0"
     inkscape:window-maximized="0" />
  <metadata
     id="metadata5">
    <rdf:RDF>
      <cc:Work
         rdf:about="">
        <dc:format>image/svg+xml</dc:format>
        <dc:type
           rdf:resource="http://purl.org/dc/dcmitype/StillImage" />
        <dc:title></dc:title>
      </cc:Work>
    </rdf:RDF>
  </metadata>
  <g
     inkscape:label="レイヤー 1"
     inkscape:groupmode="layer"
     id="layer1"
     transform="translate(-50.65184,-68.509108)">
    <g
       id="layer1-0"
       inkscape:label="レイヤー 1"
       transform="translate(-4.5704849,-18.928673)">
      <g
         transform="translate(-7.5595238,-6.0476148)"
         id="g16419">
        <path
           inkscape:connector-curvature="0"
           id="path16433"
           d="m 62.787139,166.22786 c 0.0058,-65.99495 -0.04797,-63.57051 1.471016,-66.383148 1.588228,-2.940843 4.66629,-5.272318 7.875035,-5.964938 1.322088,-0.285377 11.408282,-0.354474 53.55335,-0.366875 l 51.92448,-0.01528 -2.7e-4,41.738021 c -2.6e-4,45.61759 0.0258,44.78731 -1.49564,47.39157 -1.46088,2.50058 -4.78594,5.09173 -8.04168,6.26669 -0.82828,0.29892 -61.60915,15.22521 -73.210753,17.97877 l -0.595313,0.14129 v 6.18027 c 0,4.84395 -0.07669,6.24392 -0.354671,6.47462 -0.41565,0.34496 -24.695249,6.31901 -27.029704,6.65072 -0.873125,0.12406 -2.153047,0.30981 -2.844271,0.41278 l -1.256869,0.18721 z m 57.417561,2.0519 25.78861,-6.18036 0.0679,-18.69178 0.0679,-18.69177 -25.86479,0.0674 -25.864802,0.0675 -0.0675,24.80469 c -0.03713,13.64258 -0.03341,24.80469 0.0083,24.80469 0.04167,0 11.680642,-2.78117 25.864382,-6.18037 z"
           style="fill:#d0f1e6;stroke-width:0.26458335" />
        <path
           inkscape:connector-curvature="0"
           id="path16431"
           d="m 62.781849,166.69699 c 0,-42.98794 0.08476,-60.78547 0.297067,-62.37553 0.319332,-2.39163 1.148328,-4.361685 2.602066,-6.183648 0.982444,-1.231294 3.19574,-2.959574 4.509201,-3.521067 2.681661,-1.146387 1.324612,-1.119125 55.707957,-1.119125 h 51.71288 v 41.08351 c 0,26.5049 -0.0965,41.87909 -0.272,43.32552 -0.54098,4.4593 -2.98905,7.70182 -7.48623,9.91567 -2.28177,1.12325 -4.46298,1.68994 -36.16261,9.3951 -18.5539,4.50987 -35.044059,8.527 -36.644788,8.92696 l -2.910417,0.72721 -0.07095,6.29171 c -0.0702,6.22546 -0.07717,6.2944 -0.661459,6.54619 -0.637619,0.27478 -24.440427,6.0546 -27.710297,6.72865 -1.091407,0.22498 -2.192735,0.40915 -2.447396,0.40927 -0.439615,2.1e-4 -0.463021,-3.0404 -0.463021,-60.15042 z m 57.414581,1.80952 c 13.75172,-3.28411 25.27102,-6.08346 25.59844,-6.22078 l 0.59531,-0.24968 V 143.4083 124.78055 l -10.64947,-0.19456 c -12.55019,-0.22929 -40.931564,-0.0781 -41.407298,0.22063 -0.260736,0.1637 -0.330729,5.43055 -0.330729,24.88648 0,13.57336 0.08068,24.75952 0.1793,24.85813 0.09861,0.0986 0.366504,0.12239 0.595313,0.0528 0.228806,-0.0696 11.667414,-2.81345 25.419134,-6.09756 z"
           style="fill:#ade9d4;stroke-width:0.26458335" />
        <path
           inkscape:connector-curvature="0"
           id="path16429"
           d="m 62.85303,165.53044 c 0.06342,-48.00064 0.152717,-61.56918 0.411171,-62.47748 0.956936,-3.36303 3.611219,-6.684131 6.453439,-8.0747 3.148269,-1.540305 0.116177,-1.460977 56.23348,-1.471215 l 51.6599,-0.0094 -0.0248,34.991145 c -0.0136,19.24513 -0.10435,38.62255 -0.20157,43.06094 l -0.17677,8.06979 -0.85218,1.80586 c -1.26555,2.68183 -3.52026,4.81846 -6.68913,6.33883 -2.27958,1.09371 -4.3396,1.64806 -22.74721,6.12129 -41.25328,10.02494 -52.263244,12.73406 -52.585938,12.93929 -0.248775,0.15822 -0.330729,1.7064 -0.330729,6.24775 0,4.73739 -0.0767,6.10106 -0.356198,6.33303 -0.482555,0.40049 -29.353277,7.44209 -30.512746,7.44209 -0.305088,0 -0.349031,-9.59903 -0.280699,-61.31719 z m 57.4757,3.06735 c 16.58995,-3.96244 25.78152,-6.27289 25.99531,-6.53434 0.25757,-0.315 0.32983,-4.44602 0.32668,-18.67629 -0.002,-10.04951 -0.0989,-18.42124 -0.21486,-18.60386 -0.16723,-0.2634 -5.59468,-0.31809 -26.25585,-0.26459 l -26.045035,0.0675 -0.06749,25.06928 c -0.05376,19.96831 7.9e-5,25.06957 0.264583,25.07075 0.182639,7.9e-4 11.881132,-2.75696 25.996662,-6.1284 z"
           style="fill:#94e8cb;stroke-width:0.26458335" />
        <path
           inkscape:connector-curvature="0"
           id="path16427"
           d="m 63.046432,165.49216 c 0,-60.23479 0.0095,-61.38618 0.519675,-63.03698 1.295752,-4.192674 4.698732,-7.370856 9.137617,-8.533995 1.417163,-0.371345 7.130569,-0.416386 53.247396,-0.419772 l 51.6599,-0.0038 -0.0294,34.065107 c -0.0162,18.73581 -0.1055,38.0537 -0.19844,42.92865 l -0.16899,8.86354 -0.84227,1.77799 c -0.46326,0.9779 -1.17763,2.20592 -1.5875,2.72894 -1.05068,1.34071 -3.61962,3.23945 -5.62396,4.15674 -1.42906,0.65402 -31.78757,8.19603 -71.188977,17.68559 -1.236927,0.2979 -2.635911,0.66191 -3.108854,0.8089 l -0.859896,0.26725 v 6.1648 c 0,4.61555 -0.08311,6.23071 -0.330729,6.42709 -0.281577,0.22332 -29.864235,7.49665 -30.427084,7.48095 -0.109141,-0.003 -0.198438,-27.6155 -0.198438,-61.36101 z m 57.437258,3.12524 c 14.02949,-3.35902 25.65811,-6.23176 25.84138,-6.38386 0.26335,-0.21856 0.31899,-4.19524 0.26532,-18.96197 l -0.0679,-18.68541 -26.2194,-0.0674 -26.2194,-0.0674 -0.171587,2.97784 c -0.223666,3.88168 -0.223049,29.09668 0.0011,39.31495 0.158247,7.22266 0.217008,7.9806 0.61862,7.9806 0.244067,0 11.922427,-2.74829 25.951917,-6.10731 z"
           style="fill:#86dbbd;stroke-width:0.26458335" />
        <path
           inkscape:connector-curvature="0"
           id="path16425"
           d="m 63.046432,165.64461 c 0,-67.123573 -0.114897,-62.16632 1.515497,-65.38592 0.910108,-1.797217 3.343993,-4.15404 5.319936,-5.151493 3.403845,-1.718256 -0.393567,-1.609577 56.241305,-1.609577 h 51.5545 l -0.1252,42.26719 -0.1252,42.26719 -0.59017,1.71979 c -1.39903,4.07689 -4.41009,7.00371 -8.87116,8.623 -0.90121,0.32712 -17.80936,4.5328 -37.57368,9.34595 -19.76432,4.81315 -36.096905,8.88545 -36.294639,9.04956 -0.283752,0.23549 -0.359521,1.57077 -0.359521,6.33578 0,4.54279 -0.08187,6.0888 -0.330729,6.24504 -0.249386,0.15657 -29.901474,7.49651 -30.284603,7.49651 -0.04199,0 -0.07634,-27.54136 -0.07634,-61.20302 z m 57.881238,2.97317 c 13.86285,-3.32044 25.32262,-6.10974 25.46614,-6.19844 0.16761,-0.10358 0.26096,-6.91288 0.26096,-19.03507 0,-16.96635 -0.0423,-18.89001 -0.41852,-19.03438 -0.76496,-0.29355 -51.432517,-0.18313 -51.986377,0.11329 -0.50042,0.26782 -0.511773,0.82735 -0.511773,25.22362 0,13.72234 0.08356,25.03327 0.185684,25.1354 0.233374,0.23337 -2.401506,0.83876 27.003886,-6.20442 z"
           style="fill:#58daac;stroke-width:0.26458335" />
        <path
           inkscape:connector-curvature="0"
           id="path16423"
           d="m 63.053322,165.79502 0.0069,-61.05261 0.645287,-1.94674 c 0.804705,-2.4277 1.922757,-4.191079 3.631224,-5.727137 1.262794,-1.135361 4.231215,-2.777163 5.021182,-2.777163 0.204753,0 0.521094,-0.148828 0.702981,-0.330729 0.261847,-0.261869 11.187631,-0.34531 52.475174,-0.400758 l 52.14448,-0.07003 -0.19059,42.138777 c -0.17872,39.51285 -0.2202,42.23052 -0.66569,43.61084 -1.38431,4.28917 -4.20016,7.16833 -8.73824,8.93469 -1.12667,0.43853 -50.00318,12.46593 -70.246878,17.28616 -1.891771,0.45045 -3.588412,0.93708 -3.770313,1.08139 -0.247205,0.19612 -0.330729,1.78283 -0.330729,6.283 0,4.6203 -0.08008,6.08709 -0.344302,6.30637 -0.189365,0.15716 -6.529443,1.78535 -14.089062,3.61821 -7.559619,1.83285 -14.254938,3.50478 -14.878488,3.7154 -0.623549,0.21062 -1.189096,0.38294 -1.25677,0.38294 -0.06768,0 -0.119945,-27.47367 -0.116156,-61.05261 z m 57.539988,3.07565 c 14.11552,-3.37229 25.81341,-6.24725 25.99531,-6.38881 0.25901,-0.20155 0.33073,-4.29083 0.33073,-18.85645 0,-10.2295 -0.0723,-18.78742 -0.1606,-19.01761 -0.14495,-0.37774 -2.72094,-0.41851 -26.44272,-0.41851 -20.73647,0 -26.326758,0.0698 -26.493679,0.33073 -0.301934,0.472 -0.444436,26.63343 -0.215458,39.55521 0.193159,10.90047 0.194104,10.91407 0.757616,10.92047 0.310319,0.004 12.113281,-2.75273 26.228801,-6.12503 z"
           style="fill:#2dd399;stroke-width:0.26458335" />
        <path
           inkscape:connector-curvature="0"
           id="path16421"
           d="m 63.050484,165.62604 c 0.0022,-33.63152 0.103917,-60.9907 0.225976,-60.79819 0.146031,0.23032 0.279802,-0.0722 0.391168,-0.88475 0.570646,-4.163317 4.960962,-8.770034 9.099927,-9.548464 0.471669,-0.08871 0.797994,-0.257702 0.725166,-0.37554 -0.07283,-0.117839 0.612823,-0.288688 1.523669,-0.379666 0.910847,-0.09098 24.343788,-0.160103 52.0732,-0.153612 l 50.41712,0.0118 -0.11022,42.002612 c -0.0606,23.10143 -0.14382,42.03981 -0.18487,42.08529 -0.0411,0.0455 -0.12726,-0.0736 -0.19157,-0.26459 -0.0643,-0.19099 -0.18327,0.23715 -0.26437,0.95142 -0.0844,0.74335 -0.58359,2.14769 -1.16741,3.28412 -1.25066,2.43451 -3.28214,4.36119 -6.03,5.71894 -2.0536,1.0147 -2.75772,1.19805 -30.17954,7.85855 -17.37779,4.2209 -23.03347,5.60327 -35.85105,8.76275 l -9.921872,2.44571 -0.132291,6.34389 -0.132292,6.3439 -0.661458,0.21508 c -0.363803,0.1183 -6.944223,1.7361 -14.623158,3.59511 -7.678934,1.85901 -13.894943,3.44677 -13.813353,3.52836 0.08159,0.0816 -0.154318,0.2062 -0.524239,0.27692 l -0.672585,0.12857 z m 57.653256,3.44305 c 19.82094,-4.75328 25.85647,-6.29252 26.12761,-6.66333 0.28576,-0.3908 0.35258,-3.98604 0.35258,-18.96985 0,-12.23804 -0.0926,-18.66066 -0.27389,-18.99943 -0.26798,-0.50074 -0.84442,-0.51177 -26.73122,-0.51177 -24.948634,0 -26.468171,0.0264 -26.64746,0.46302 -0.240718,0.5862 -0.229336,49.77788 0.01167,50.40313 0.09816,0.25466 0.450096,0.4622 0.782087,0.46119 0.331989,-0.001 12.202373,-2.78333 26.378633,-6.18296 z"
           style="fill:#00d087;stroke-width:0.26458335" />
      </g>
    </g>
  </g>
</svg>
